<?xml version="1.0" standalone="no"?>
<!DOCTYPE svg PUBLIC "-//W3C//DTD SVG 20010904//EN"
 "http://www.w3.org/TR/2001/REC-SVG-20010904/DTD/svg10.dtd">
<svg version="1.0" xmlns="http://www.w3.org/2000/svg"
 width="198.000000pt" height="198.000000pt" viewBox="0 0 198.000000 198.000000"
 preserveAspectRatio="xMidYMid meet">
<metadata>
Created by potrace 1.14, written by Peter Selinger 2001-2017
</metadata>
<g transform="translate(0.000000,198.000000) scale(0.100000,-0.100000)"
fill="#000000" stroke="none">
<path d="M928 1975 c-2 -1 -31 -5 -66 -8 -204 -20 -411 -123 -572 -286 -179
-181 -277 -407 -284 -655 -9 -341 135 -635 411 -838 86 -63 243 -137 328 -154
11 -2 31 -6 45 -9 53 -12 176 -21 251 -19 131 5 325 60 421 121 21 12 40 23
44 23 3 0 38 24 78 54 166 126 293 309 351 508 20 70 24 94 34 183 12 112 24
105 -164 105 l-162 0 -7 -69 c-24 -260 -190 -470 -445 -559 -66 -23 -92 -26
-196 -27 -133 0 -195 14 -300 67 -298 150 -432 505 -308 818 59 148 169 269
308 338 79 39 124 53 220 67 l80 11 1 162 c1 89 -1 162 -5 163 -19 3 -61 6
-63 4z"/>
<path d="M1411 1668 c-144 -41 -189 -232 -80 -339 44 -43 92 -61 153 -58 59 3
92 18 131 57 92 91 76 245 -33 317 -44 29 -118 39 -171 23z"/>
<path d="M878 1468 c-69 -14 -173 -75 -231 -133 -107 -108 -149 -217 -142
-370 4 -88 12 -119 51 -200 52 -108 180 -211 309 -251 60 -18 229 -11 285 12
190 77 329 260 326 429 l-1 40 -237 3 -238 2 -1 23 c0 12 -1 119 -1 237 l-1
216 -41 0 c-22 0 -58 -3 -78 -8z"/>
</g>
</svg>
